<svg version="1" xmlns="http://www.w3.org/2000/svg" width="933.333" height="933.333" viewBox="0 0 700.000000 700.000000"><path d="M493.3 75.9c-7.1 1.8-14.3 8.6-16.7 15.8-1.4 3.9-1.6 10.7-1.6 44V175l-89.2.1c-49.1 0-90.4.3-91.8.5-3.9.7-10.7 5.2-13.6 8.9-7.6 10.1-6.8 23.8 2 32.9 8 8.1.5 7.7 119.7 7.4 117.6-.3 107.6.3 115.4-7.3 6.5-6.2 6.9-8.4 7.5-33.8l.5-22.7 56.5 56.5c31.1 31.1 56.6 56.9 56.8 57.3.1.4-25.4 26.4-56.8 57.7l-57 57v-21.7c0-18.7-.3-22.5-1.8-26.6-2.3-6-5.3-9.5-11.1-13l-4.6-2.7-141.2-.3L225 325v-39.3c0-44.2-.2-45.5-6.9-52.8-4.2-4.5-12-7.9-17.9-7.9-2.1 0-6.1.7-8.8 1.6-4.5 1.5-12.6 9.4-95.2 91.8-51.8 51.7-91.5 92-93 94.6-3.7 6.2-3.8 17.4-.3 23.6 1.3 2.3 41.8 43.6 93 94.6 82.8 82.8 91 90.7 95.5 92.2 9.6 3.1 18.9 1.1 25.9-5.7 7.6-7.4 7.7-8.3 7.7-53.4V525h180.1l5.4-2.6c15.8-7.4 19.3-28.6 6.6-40.5-7.9-7.3-1.4-6.9-118.1-6.9H194.3l-5.1 2.6c-5.5 2.7-10.3 7.9-12.7 13.8-.8 2-1.5 3.8-1.5 4.1v44l-57-57c-31.4-31.3-56.9-57.3-56.8-57.7.2-.4 25.7-26.2 56.8-57.3l56.5-56.6.5 22.8c.6 25.6.9 27.2 7.8 34.1 7.7 7.7-3.1 7.2 152.9 7.2H475v39.3c0 44.6.1 45.6 7.4 53 6.9 7.2 16.3 9.3 26.2 6.1 4.5-1.5 12.8-9.5 95.7-92.3 62.1-62 91.4-91.9 92.8-94.7 3-6.2 3.5-13.1 1.4-19.5-1.6-5.1-6-9.7-91.9-95.7-49.5-49.7-92-91.5-94.3-92.9-4.7-2.7-13.4-3.8-19-2.4z"/></svg>